<?xml version="1.0" encoding="utf-8"?>
<!-- Generator: Adobe Illustrator 25.0.0, SVG Export Plug-In . SVG Version: 6.00 Build 0)  -->
<svg version="1.1" id="Calque_1" xmlns="http://www.w3.org/2000/svg" xmlns:xlink="http://www.w3.org/1999/xlink" x="0px" y="0px"
	 viewBox="0 0 257 129" style="enable-background:new 0 0 257 129;" xml:space="preserve">
<style type="text/css">
	.st0{fill:#8DC041;}
	.st1{fill:#618FCA;}
</style>
<path class="st0" d="M65.29,96.94c1.93,0.12,3.48,1.55,3.48,3.48c0,1.91-1.55,3.48-3.48,3.48c-1.91,0-3.48-1.58-3.48-3.48h-1.27
	c0.05,2.61,2.1,4.75,4.73,4.75c2.66,0,4.76-2.1,4.76-4.73c0-2.69-2.21-4.65-4.74-4.77c-1-0.04-1.82-0.81-1.82-1.81
	c0-1,0.82-1.82,1.82-1.82c1,0,1.81,0.81,1.81,1.82h1.27c0-1.7-1.38-3.08-3.08-3.08c-1.7,0-3.08,1.38-3.08,3.08
	C62.2,95.56,63.58,96.84,65.29,96.94 M82.97,92.91c-1.37-1.36-3.16-2.12-5.09-2.12c-3.96,0-7.17,3.24-7.17,7.21
	c0,1.9,0.75,3.7,2.1,5.06c1.36,1.35,3.16,2.1,5.07,2.1c3.97,0,7.2-3.22,7.2-7.17C85.09,96.07,84.33,94.27,82.97,92.91 M77.9,103.9
	c-3.25,0-5.92-2.67-5.92-5.92c0-3.28,2.67-5.92,5.92-5.92c3.27,0,5.92,2.64,5.92,5.92C83.82,101.23,81.17,103.9,77.9,103.9
	 M94.56,100.46c-0.02,1.92-1.59,3.47-3.48,3.47c-1.93,0-3.47-1.57-3.47-3.5v-9.52h-1.27v9.52c0,2.67,2.04,4.77,4.73,4.77
	c2.54,0,4.75-2.06,4.76-4.74v-9.54h-1.27V100.46z M101.81,96.94c1.93,0.12,3.48,1.55,3.48,3.48c0,1.91-1.55,3.48-3.48,3.48
	c-1.91,0-3.48-1.58-3.48-3.48h-1.27c0.06,2.61,2.11,4.75,4.73,4.75c2.67,0,4.77-2.1,4.77-4.73c0-2.69-2.22-4.65-4.75-4.77
	c-1.01-0.04-1.82-0.81-1.82-1.81c0-1,0.82-1.82,1.82-1.82c1,0,1.81,0.81,1.81,1.82h1.27c0-1.7-1.38-3.08-3.08-3.08
	c-1.7,0-3.08,1.38-3.08,3.08C98.72,95.56,100.1,96.84,101.81,96.94"/>
<path class="st1" d="M117.29,99.54c3.15,0.19,5.68,2.53,5.68,5.68c0,3.12-2.53,5.68-5.68,5.68c-3.12,0-5.68-2.56-5.68-5.68h-2.07
	c0.09,4.26,3.43,7.75,7.71,7.75c4.35,0,7.78-3.43,7.78-7.72c0-4.38-3.61-7.59-7.74-7.78c-1.64-0.06-2.96-1.32-2.96-2.96
	c0-1.64,1.32-2.96,2.96-2.96c1.64,0,2.96,1.33,2.96,2.96h2.07c0-2.78-2.25-5.03-5.03-5.03c-2.78,0-5.03,2.25-5.03,5.03
	C112.26,97.29,114.51,99.39,117.29,99.54 M140.15,100.5c-1.45-1.85-3.71-3.05-6.17-3.05c-4.38,0-7.72,3.42-7.72,7.77
	c0,4.29,3.4,7.71,7.72,7.71c4.35,0,7.78-3.42,7.78-7.71h-2.04c0,3.15-2.56,5.65-5.71,5.65c-1.2,0-2.31-0.37-3.2-0.99L140.15,100.5z
	 M128.33,105.19c0-3.15,2.53-5.68,5.68-5.68c1.21,0,2.32,0.37,3.21,0.99l-7.9,7.9C128.7,107.51,128.33,106.39,128.33,105.19
	 M135.65,90.26l-3.83,4.66l1.02,1.01l4.66-3.79L135.65,90.26z M143.82,112.91h2.07v-7.96c0.13-3.06,2.59-5.5,5.68-5.5
	c3.11,0,5.68,2.56,5.68,5.71v7.75h2.06v-7.75c0-4.38-3.61-7.78-7.78-7.78c-2.28,0-4.26,0.93-5.65,2.41V97.6h-2.07V112.91z
	 M169.12,97.51c-4.38,0-7.71,3.43-7.71,7.78c0,4.29,3.4,7.72,7.71,7.72c2.72,0,5.09-1.32,6.48-3.4c0.77,1.48,2.01,2.69,3.61,3.4
	v-2.38c-1.42-0.99-2.32-2.59-2.37-4.32c0.03-0.31,0.06-0.68,0.06-1.02C176.9,100.9,173.29,97.51,169.12,97.51 M169.16,110.94
	c-3.15,0-5.68-2.53-5.68-5.68c0-3.12,2.53-5.68,5.68-5.68c3.12,0,5.68,2.56,5.68,5.68C174.83,108.4,172.27,110.94,169.16,110.94
	 M180.42,112.91h2.06v-7.83c0.12-2.99,2.56-5.4,5.65-5.4V97.6c-2.26,0-4.26,0.93-5.65,2.44v-2.41h-2.06V112.91z M189.46,105.25
	c0,4.26,3.39,7.68,7.71,7.68v-2.07c-3.14,0-5.64-2.53-5.64-5.62v-5.65h5.62v-2.07h-5.62v-2.81h-2.07V105.25z"/>
<path class="st0" d="M243.38,29.25c0,0-1.5,14.12-15.08,18.93l-2.46-3.53c0,0,5.45-1.39,7.8-8.56c0,0-12.62-0.32-9.62-13.37
	c0,0,0.53-5.14,6.52-6.63c0,0,2.25-1.07,6.2,0c0,0,5.78,1.6,6.63,7.17C243.38,23.27,244.02,25.4,243.38,29.25"/>
<g>
	<path class="st1" d="M68.01,49.82c-9.56,0-17.07,7.58-17.07,17.14v33.66h4.57V78.77c3.07,3.28,7.51,5.33,12.49,5.33
		c9.22,0,17.21-7.51,17.21-17.21C85.21,57.4,77.63,49.82,68.01,49.82z M68.07,79.52c-6.89,0-12.56-5.6-12.56-12.56
		c0-6.89,5.67-12.56,12.56-12.56c6.96,0,12.56,5.67,12.56,12.56C80.64,73.92,75.04,79.52,68.07,79.52z"/>
	<rect x="92.31" y="50.57" class="st1" width="4.57" height="33.52"/>
	<polygon class="st1" points="18.51,84.1 45.82,84.1 45.82,79.52 23.08,79.52 23.08,54.53 43.16,54.53 43.16,49.96 23.08,49.96 
		23.08,37.33 45.82,37.33 45.82,32.75 18.51,32.75 	"/>
	<path class="st1" d="M215.48,50.3v17.07c0,6.96-5.6,12.63-12.56,12.63c-6.9,0-12.56-5.67-12.56-12.63V50.3h-4.58v17.07
		c0,9.69,7.99,17.21,17.21,17.21c4.98,0,9.42-2.05,12.5-5.33v4.85c-0.41,6.55-5.74,11.67-12.43,11.67v4.58c9.56,0,17-7.58,17-17.07
		V50.3H215.48z"/>
	<path class="st1" d="M94.57,37.26c-2.05,0-3.89,1.77-3.89,3.96c0,2.19,1.84,3.89,3.89,3.89c2.19,0,3.96-1.7,3.96-3.89
		C98.53,39.04,96.75,37.26,94.57,37.26z"/>
	<path class="st1" d="M178.81,69.49c0.07-0.68,0.14-1.5,0.14-2.25c0-9.69-7.99-17.2-17.2-17.2c-9.7,0-17.07,7.58-17.07,17.2
		c0,9.49,7.51,17.07,17.07,17.07c6,0,11.26-2.93,14.34-7.51c1.71,3.28,4.44,5.94,7.99,7.51v-5.26
		C180.93,76.86,178.95,73.31,178.81,69.49z M161.81,79.73c-6.97,0-12.56-5.6-12.56-12.56c0-6.9,5.6-12.56,12.56-12.56
		c6.89,0,12.56,5.67,12.56,12.56C174.38,74.13,168.71,79.73,161.81,79.73z"/>
	<path class="st1" d="M122.83,49.76c-5.05,0-9.42,2.05-12.49,5.32v-4.85h-4.58V84.1h4.58V66.48c0.27-6.76,5.73-12.16,12.56-12.16
		c6.9,0,12.56,5.67,12.56,12.63V84.1h4.57V66.96C140.03,57.26,132.05,49.76,122.83,49.76z"/>
</g>
</svg>
